<svg width="88" height="83" viewBox="0 0 88 83" fill="none" xmlns="http://www.w3.org/2000/svg">
<path d="M79.2314 0H8.3139C3.72226 0 0 3.72226 0 8.3139V58.6224C0 63.214 3.72226 66.9363 8.3139 66.9363H79.2314C83.823 66.9363 87.5452 63.214 87.5452 58.6224V8.3139C87.5452 3.72226 83.823 0 79.2314 0Z" fill="#06334D"/>
<path d="M31.5388 63.1676C31.5388 63.1676 29.2253 73.7215 16.3008 83C16.3008 83 38.9453 74.4899 46.3845 63.1676H31.5388Z" fill="#06334D"/>
<path d="M68.6047 18.3621L19.0075 18.2669C18.4702 18.2659 18.0338 18.7006 18.0328 19.2379L17.9784 47.5885C17.9773 48.1257 18.412 48.5621 18.9493 48.5631L68.5465 48.6584C69.0838 48.6594 69.5201 48.2247 69.5212 47.6874L69.5756 19.3368C69.5766 18.7995 69.1419 18.3632 68.6047 18.3621Z" fill="#407BFF"/>
<path opacity="0.8" d="M68.6047 18.3621L19.0075 18.2669C18.4702 18.2659 18.0338 18.7006 18.0328 19.2379L17.9784 47.5885C17.9773 48.1257 18.412 48.5621 18.9493 48.5631L68.5465 48.6584C69.0838 48.6594 69.5201 48.2247 69.5212 47.6874L69.5756 19.3368C69.5766 18.7995 69.1419 18.3632 68.6047 18.3621Z" fill="white"/>
<path opacity="0.2" d="M50.3984 35.0702L48.8124 34.0239L50.3984 32.9775C52.4503 31.6204 54.5267 30.2961 56.5541 28.89L62.6771 24.7617C64.6881 23.3474 66.7237 21.974 68.7265 20.5352C66.601 21.7696 64.5001 23.0531 62.3828 24.3202L56.1126 28.1951C54.0117 29.4868 51.9516 30.8275 49.8752 32.1436L47.9132 33.3944L46.9894 34.0239L46.7769 34.1547L45.2154 35.1438C44.7979 35.4497 44.2943 35.6157 43.7767 35.618C43.2581 35.6133 42.7544 35.4445 42.3379 35.1356L40.7928 34.1383L40.5803 34.0157L39.6483 33.4026L37.6863 32.1518C35.6099 30.8193 33.558 29.4704 31.4571 28.187C27.3042 25.5628 23.1186 22.9714 18.884 20.4617C22.8816 23.3311 26.9445 26.1024 31.0238 28.8655C33.0512 30.2634 35.1112 31.5959 37.155 32.9529L38.7327 33.9993L37.1795 35.0375C35.1276 36.3946 33.092 37.7107 31.032 39.125L24.9171 43.237C22.8979 44.6431 20.8297 46.0328 18.8677 47.4716C20.9932 46.2372 23.0859 44.9455 25.2032 43.6784L31.4816 39.7953C33.5744 38.5119 35.6263 37.163 37.7109 35.855L39.681 34.6124L40.2696 34.9967L41.8065 36.0104C42.3843 36.4473 43.089 36.6838 43.8134 36.6838C44.5379 36.6838 45.2426 36.4473 45.8204 36.0104L47.3573 34.9967L47.9459 34.6124L49.9079 35.8714C51.9761 37.1875 54.0362 38.5446 56.129 39.8362C60.2982 42.444 64.4674 45.0518 68.7183 47.5534C64.7126 44.684 60.6497 41.9127 56.5786 39.1495C54.5103 37.768 52.4421 36.4273 50.3984 35.0702Z" fill="black"/>
</svg>
