<svg width="169" height="71" viewBox="0 0 169 71" fill="none" xmlns="http://www.w3.org/2000/svg">
<path d="M2.925 20.04H11.925V51H2.925V20.04ZM13.815 34.485H14.895C15.855 34.485 16.56 34.455 17.01 34.395C17.49 34.305 17.865 34.125 18.135 33.855C18.405 33.615 18.57 33.27 18.63 32.82C18.72 32.34 18.765 31.635 18.765 30.705C18.765 29.775 18.72 29.085 18.63 28.635C18.57 28.155 18.405 27.78 18.135 27.51C17.865 27.27 17.49 27.12 17.01 27.06C16.53 26.97 15.825 26.925 14.895 26.925H13.815V20.04H17.55C19.77 20.04 21.57 20.265 22.95 20.715C24.36 21.135 25.425 21.795 26.145 22.695C26.835 23.535 27.3 24.6 27.54 25.89C27.78 27.15 27.9 28.755 27.9 30.705C27.9 32.565 27.78 34.11 27.54 35.34C27.33 36.57 26.895 37.605 26.235 38.445C25.485 39.405 24.405 40.14 22.995 40.65C21.615 41.13 19.8 41.37 17.55 41.37H13.815V34.485ZM40.2539 51.315C37.5539 51.315 35.7389 50.49 34.8089 48.84C34.3889 48.12 34.1039 47.25 33.9539 46.23C33.8039 45.18 33.7289 43.905 33.7289 42.405V28.05H42.0539V38.895C42.0539 40.485 42.0689 41.535 42.0989 42.045C42.1589 42.795 42.2489 43.335 42.3689 43.665C42.4889 43.995 42.6839 44.205 42.9539 44.295C43.2239 44.355 43.7039 44.385 44.3939 44.385H44.8439V50.01C43.6739 50.88 42.1439 51.315 40.2539 51.315ZM46.7339 28.05H55.0589V51H46.7339V28.05ZM62.4361 17.565H70.7611V51H62.4361V17.565ZM95.1434 34.305C94.5734 34.275 93.7934 34.2 92.8034 34.08C90.9434 33.9 89.4434 33.81 88.3034 33.81H86.8184V27.69C88.9484 27.69 90.9734 27.84 92.8934 28.14L95.1434 28.545V34.305ZM88.6184 44.025C88.6184 43.575 88.5434 43.29 88.3934 43.17C88.2434 43.05 87.9284 42.96 87.4484 42.9L82.5884 42.225C81.3884 42.045 80.4134 41.76 79.6634 41.37C78.9434 40.98 78.4034 40.455 78.0434 39.795C77.6834 39.225 77.4434 38.535 77.3234 37.725C77.2034 36.915 77.1434 35.91 77.1434 34.71C77.1434 32.25 77.8784 30.45 79.3484 29.31C80.5784 28.41 82.4384 27.885 84.9284 27.735V34.8C84.9284 35.25 84.9884 35.55 85.1084 35.7C85.2284 35.82 85.6034 35.925 86.2334 36.015L91.6334 36.735C92.4134 36.825 93.0884 36.99 93.6584 37.23C94.2284 37.44 94.7084 37.77 95.0984 38.22C95.9684 39.18 96.4034 41.025 96.4034 43.755C96.4034 46.635 95.6684 48.645 94.1984 49.785C92.9084 50.745 91.0484 51.255 88.6184 51.315V44.025ZM86.7284 51.36C84.3284 51.33 82.2284 51.18 80.4284 50.91L77.8634 50.505V44.745C79.0634 44.865 80.6834 44.985 82.7234 45.105C83.8634 45.165 84.6734 45.195 85.1534 45.195H86.7284V51.36ZM112.29 37.275H115.44C115.44 35.595 115.275 34.515 114.945 34.035C114.765 33.765 114.525 33.6 114.225 33.54C113.925 33.45 113.49 33.405 112.92 33.405H112.29V27.69H112.92C115.5 27.69 117.48 27.9 118.86 28.32C120.27 28.74 121.305 29.43 121.965 30.39C122.565 31.23 122.925 32.31 123.045 33.63C123.195 34.95 123.27 36.93 123.27 39.57V41.37H112.29V37.275ZM113.82 51.36C111.06 51.36 108.885 51.135 107.295 50.685C105.735 50.205 104.565 49.455 103.785 48.435C103.095 47.535 102.645 46.425 102.435 45.105C102.225 43.755 102.12 41.91 102.12 39.57C102.12 37.41 102.195 35.7 102.345 34.44C102.495 33.15 102.81 32.055 103.29 31.155C103.83 30.165 104.655 29.4 105.765 28.86C106.905 28.29 108.45 27.93 110.4 27.78V41.37C110.4 42.39 110.445 43.125 110.535 43.575C110.625 43.995 110.835 44.31 111.165 44.52C111.525 44.76 112.08 44.895 112.83 44.925C113.79 44.985 114.81 45.015 115.89 45.015C117.81 45.015 119.205 44.97 120.075 44.88L122.37 44.7V50.505C121.17 50.865 119.52 51.105 117.42 51.225C116.4 51.315 115.2 51.36 113.82 51.36Z" fill="#06334D"/>
<path d="M129.333 44C129.333 45.4728 130.527 46.6667 132 46.6667C133.473 46.6667 134.667 45.4728 134.667 44C134.667 42.5272 133.473 41.3333 132 41.3333C130.527 41.3333 129.333 42.5272 129.333 44ZM140 28L140.354 27.6464L139.863 27.1559L139.553 27.7764L140 28ZM156 44L155.646 44.3536L156.101 44.8085L156.43 44.2553L156 44ZM162.833 28C162.833 29.4728 164.027 30.6667 165.5 30.6667C166.973 30.6667 168.167 29.4728 168.167 28C168.167 26.5272 166.973 25.3333 165.5 25.3333C164.027 25.3333 162.833 26.5272 162.833 28ZM132.447 44.2236L140.447 28.2236L139.553 27.7764L131.553 43.7764L132.447 44.2236ZM139.646 28.3536L155.646 44.3536L156.354 43.6464L140.354 27.6464L139.646 28.3536ZM156.43 44.2553L165.93 28.2553L165.07 27.7447L155.57 43.7447L156.43 44.2553Z" fill="#06334D"/>
</svg>
