<svg width="65" height="19" viewBox="0 0 65 19" fill="none" xmlns="http://www.w3.org/2000/svg">
<path d="M0.56 1.488H5.36V18H0.56V1.488ZM6.368 9.192H6.944C7.456 9.192 7.832 9.176 8.072 9.144C8.328 9.096 8.528 9 8.672 8.856C8.816 8.728 8.904 8.544 8.936 8.304C8.984 8.048 9.008 7.672 9.008 7.176C9.008 6.68 8.984 6.312 8.936 6.072C8.904 5.816 8.816 5.616 8.672 5.472C8.528 5.344 8.328 5.264 8.072 5.232C7.816 5.184 7.44 5.16 6.944 5.16H6.368V1.488H8.36C9.544 1.488 10.504 1.608 11.24 1.848C11.992 2.072 12.56 2.424 12.944 2.904C13.312 3.352 13.56 3.92 13.688 4.608C13.816 5.28 13.88 6.136 13.88 7.176C13.88 8.168 13.816 8.992 13.688 9.648C13.576 10.304 13.344 10.856 12.992 11.304C12.592 11.816 12.016 12.208 11.264 12.48C10.528 12.736 9.56 12.864 8.36 12.864H6.368V9.192ZM20.4688 18.168C19.0288 18.168 18.0608 17.728 17.5648 16.848C17.3408 16.464 17.1888 16 17.1088 15.456C17.0288 14.896 16.9888 14.216 16.9888 13.416V5.76H21.4288V11.544C21.4288 12.392 21.4368 12.952 21.4528 13.224C21.4848 13.624 21.5328 13.912 21.5968 14.088C21.6608 14.264 21.7648 14.376 21.9088 14.424C22.0528 14.456 22.3088 14.472 22.6768 14.472H22.9168V17.472C22.2928 17.936 21.4768 18.168 20.4688 18.168ZM23.9248 5.76H28.3648V18H23.9248V5.76ZM32.2992 0.167999H36.7392V18H32.2992V0.167999ZM49.7431 9.096C49.4391 9.08 49.0231 9.04 48.4951 8.976C47.5031 8.88 46.7031 8.832 46.0951 8.832H45.3031V5.568C46.4391 5.568 47.5191 5.648 48.5431 5.808L49.7431 6.024V9.096ZM46.2631 14.28C46.2631 14.04 46.2231 13.888 46.1431 13.824C46.0631 13.76 45.8951 13.712 45.6391 13.68L43.0471 13.32C42.4071 13.224 41.8871 13.072 41.4871 12.864C41.1031 12.656 40.8151 12.376 40.6231 12.024C40.4311 11.72 40.3031 11.352 40.2391 10.92C40.1751 10.488 40.1431 9.952 40.1431 9.312C40.1431 8 40.5351 7.04 41.3191 6.432C41.9751 5.952 42.9671 5.672 44.2951 5.592V9.36C44.2951 9.6 44.3271 9.76 44.3911 9.84C44.4551 9.904 44.6551 9.96 44.9911 10.008L47.8711 10.392C48.2871 10.44 48.6471 10.528 48.9511 10.656C49.2551 10.768 49.5111 10.944 49.7191 11.184C50.1831 11.696 50.4151 12.68 50.4151 14.136C50.4151 15.672 50.0231 16.744 49.2391 17.352C48.5511 17.864 47.5591 18.136 46.2631 18.168V14.28ZM45.2551 18.192C43.9751 18.176 42.8551 18.096 41.8951 17.952L40.5271 17.736V14.664C41.1671 14.728 42.0311 14.792 43.1191 14.856C43.7271 14.888 44.1591 14.904 44.4151 14.904H45.2551V18.192ZM58.8882 10.68H60.5682C60.5682 9.784 60.4802 9.208 60.3042 8.952C60.2082 8.808 60.0802 8.72 59.9202 8.688C59.7602 8.64 59.5282 8.616 59.2242 8.616H58.8882V5.568H59.2242C60.6002 5.568 61.6562 5.68 62.3923 5.904C63.1442 6.128 63.6962 6.496 64.0482 7.008C64.3682 7.456 64.5602 8.032 64.6242 8.736C64.7042 9.44 64.7442 10.496 64.7442 11.904V12.864H58.8882V10.68ZM59.7042 18.192C58.2322 18.192 57.0722 18.072 56.2242 17.832C55.3922 17.576 54.7682 17.176 54.3522 16.632C53.9842 16.152 53.7442 15.56 53.6322 14.856C53.5202 14.136 53.4642 13.152 53.4642 11.904C53.4642 10.752 53.5042 9.84 53.5842 9.168C53.6642 8.48 53.8322 7.896 54.0882 7.416C54.3762 6.888 54.8162 6.48 55.4082 6.192C56.0162 5.888 56.8402 5.696 57.8802 5.616V12.864C57.8802 13.408 57.9042 13.8 57.9522 14.04C58.0002 14.264 58.1122 14.432 58.2882 14.544C58.4802 14.672 58.7762 14.744 59.1762 14.76C59.6882 14.792 60.2322 14.808 60.8082 14.808C61.8322 14.808 62.5762 14.784 63.0402 14.736L64.2642 14.64V17.736C63.6242 17.928 62.7442 18.056 61.6242 18.12C61.0802 18.168 60.4402 18.192 59.7042 18.192Z" fill="#214F6D"/>
</svg>
