<svg width="23" height="24" viewBox="0 0 23 24" fill="none" xmlns="http://www.w3.org/2000/svg">
<path d="M18.1667 7.75009C18.1667 6.00404 17.4643 4.32951 16.214 3.09488C14.9638 1.86024 13.2681 1.16663 11.5 1.16663C9.73189 1.16663 8.0362 1.86024 6.78596 3.09488C5.53571 4.32951 4.83333 6.00404 4.83333 7.75009C4.83333 15.4308 1.5 17.6253 1.5 17.6253H21.5C21.5 17.6253 18.1667 15.4308 18.1667 7.75009Z" stroke="#E6EEF2" stroke-width="2" stroke-linecap="round" stroke-linejoin="round"/>
<path d="M13.4222 21.7399C13.2269 22.0725 12.9465 22.3485 12.6091 22.5404C12.2718 22.7323 11.8893 22.8333 11.5 22.8333C11.1107 22.8333 10.7282 22.7323 10.3908 22.5404C10.0535 22.3485 9.7731 22.0725 9.57776 21.7399" stroke="#E6EEF2" stroke-width="2" stroke-linecap="round" stroke-linejoin="round"/>
</svg>
