<svg width="24" height="24" viewBox="0 0 24 24" fill="none" xmlns="http://www.w3.org/2000/svg">
<path d="M22 11.4445C22.0038 12.911 21.6612 14.3577 21 15.6667C20.216 17.2353 19.0108 18.5546 17.5194 19.477C16.0279 20.3993 14.3091 20.8882 12.5555 20.8889C11.089 20.8927 9.64234 20.5501 8.33332 19.8889L2 22L4.11111 15.6667C3.44992 14.3577 3.10729 12.911 3.11111 11.4445C3.11179 9.69086 3.60068 7.97208 4.52302 6.48064C5.44536 4.98919 6.76472 3.78399 8.33332 3.00003C9.64234 2.33884 11.089 1.99621 12.5555 2.00003H13.1111C15.427 2.1278 17.6145 3.10532 19.2546 4.74543C20.8947 6.38553 21.8722 8.57297 22 10.8889V11.4445Z" stroke="#245E80" stroke-width="2" stroke-linecap="round" stroke-linejoin="round"/>
</svg>
